<mxfile host="app.diagrams.net" agent="Mozilla/5.0 (Windows NT 10.0; Win64; x64) AppleWebKit/537.36 (KHTML, like Gecko) Chrome/133.0.0.0 Safari/537.36" version="26.1.0">
  <diagram name="Page-1" id="2glrnaEZWtzoVYgZgW3D">
    <mxGraphModel dx="1105" dy="549" grid="1" gridSize="10" guides="1" tooltips="1" connect="1" arrows="1" fold="1" page="1" pageScale="1" pageWidth="850" pageHeight="1100" math="0" shadow="0">
      <root>
        <mxCell id="0" />
        <mxCell id="1" parent="0" />
        <mxCell id="Tl7vBJkCg9ivMlw3wstG-1" value="Mahasiswas" style="swimlane;childLayout=stackLayout;horizontal=1;startSize=50;horizontalStack=0;rounded=1;fontSize=14;fontStyle=0;strokeWidth=2;resizeParent=0;resizeLast=1;shadow=0;dashed=0;align=center;arcSize=4;whiteSpace=wrap;html=1;" parent="1" vertex="1">
          <mxGeometry x="360" y="200" width="160" height="120" as="geometry" />
        </mxCell>
        <mxCell id="Tl7vBJkCg9ivMlw3wstG-2" value="# nim&lt;div&gt;* nama&lt;/div&gt;&lt;div&gt;* jurusan&lt;/div&gt;" style="align=left;strokeColor=none;fillColor=none;spacingLeft=4;spacingRight=4;fontSize=12;verticalAlign=top;resizable=0;rotatable=0;part=1;html=1;whiteSpace=wrap;" parent="Tl7vBJkCg9ivMlw3wstG-1" vertex="1">
          <mxGeometry y="50" width="160" height="70" as="geometry" />
        </mxCell>
        <mxCell id="Tl7vBJkCg9ivMlw3wstG-4" value="Dospems" style="swimlane;childLayout=stackLayout;horizontal=1;startSize=50;horizontalStack=0;rounded=1;fontSize=14;fontStyle=0;strokeWidth=2;resizeParent=0;resizeLast=1;shadow=0;dashed=0;align=center;arcSize=4;whiteSpace=wrap;html=1;" parent="1" vertex="1">
          <mxGeometry x="530" y="200" width="160" height="120" as="geometry" />
        </mxCell>
        <mxCell id="Tl7vBJkCg9ivMlw3wstG-5" value="# nip&lt;div&gt;* nama&lt;/div&gt;&lt;div&gt;* jabatan akademik&lt;/div&gt;" style="align=left;strokeColor=none;fillColor=none;spacingLeft=4;spacingRight=4;fontSize=12;verticalAlign=top;resizable=0;rotatable=0;part=1;html=1;whiteSpace=wrap;" parent="Tl7vBJkCg9ivMlw3wstG-4" vertex="1">
          <mxGeometry y="50" width="160" height="70" as="geometry" />
        </mxCell>
        <mxCell id="Tl7vBJkCg9ivMlw3wstG-6" value="KRS" style="swimlane;childLayout=stackLayout;horizontal=1;startSize=50;horizontalStack=0;rounded=1;fontSize=14;fontStyle=0;strokeWidth=2;resizeParent=0;resizeLast=1;shadow=0;dashed=0;align=center;arcSize=4;whiteSpace=wrap;html=1;" parent="1" vertex="1">
          <mxGeometry x="700" y="200" width="190" height="190" as="geometry" />
        </mxCell>
        <mxCell id="Tl7vBJkCg9ivMlw3wstG-7" value="# nama&lt;div&gt;* nim&lt;/div&gt;&lt;div&gt;* tahun akademik&lt;/div&gt;&lt;div&gt;* jurusan&lt;/div&gt;&lt;div&gt;* ip semester lalu&lt;/div&gt;&lt;div&gt;* mata kuliah&lt;/div&gt;&lt;div&gt;* jumlah sks&lt;/div&gt;&lt;div&gt;*semester&lt;/div&gt;&lt;div&gt;* statu persetujuan&lt;/div&gt;" style="align=left;strokeColor=none;fillColor=none;spacingLeft=4;spacingRight=4;fontSize=12;verticalAlign=top;resizable=0;rotatable=0;part=1;html=1;whiteSpace=wrap;" parent="Tl7vBJkCg9ivMlw3wstG-6" vertex="1">
          <mxGeometry y="50" width="190" height="140" as="geometry" />
        </mxCell>
        <mxCell id="S6B5SD5y32HwiH42Qb6R-1" value="matakuliahs" style="swimlane;childLayout=stackLayout;horizontal=1;startSize=50;horizontalStack=0;rounded=1;fontSize=14;fontStyle=0;strokeWidth=2;resizeParent=0;resizeLast=1;shadow=0;dashed=0;align=center;arcSize=4;whiteSpace=wrap;html=1;" vertex="1" parent="1">
          <mxGeometry x="900" y="200" width="170" height="160" as="geometry" />
        </mxCell>
        <mxCell id="S6B5SD5y32HwiH42Qb6R-2" value="# kode mata kuliah&lt;div&gt;* nama mata kuliah&lt;/div&gt;&lt;div&gt;* bobot sks&lt;/div&gt;&lt;div&gt;* status(wajib/pilihan)&lt;/div&gt;&lt;div&gt;* semester yang ditawarkan&lt;/div&gt;&lt;div&gt;&lt;br&gt;&lt;/div&gt;" style="align=left;strokeColor=none;fillColor=none;spacingLeft=4;spacingRight=4;fontSize=12;verticalAlign=top;resizable=0;rotatable=0;part=1;html=1;whiteSpace=wrap;" vertex="1" parent="S6B5SD5y32HwiH42Qb6R-1">
          <mxGeometry y="50" width="170" height="110" as="geometry" />
        </mxCell>
      </root>
    </mxGraphModel>
  </diagram>
</mxfile>
